<svg xmlns="http://www.w3.org/2000/svg" viewBox="0 0 24 24" fill="#5f7bff">
  <path d="M12 0.5C5.73 0.5 0.5 5.73 0.5 12c0 5.08 3.29 9.39 7.86 10.91.57.1.78-.25.78-.55 0-.27-.01-1.17-.02-2.12-3.2.7-3.88-1.54-3.88-1.54-.52-1.33-1.27-1.68-1.27-1.68-1.04-.71.08-.7.08-.7 1.15.08 1.75 1.18 1.75 1.18 1.02 1.75 2.67 1.25 3.32.96.1-.74.4-1.25.72-1.54-2.55-.29-5.23-1.27-5.23-5.64 0-1.25.45-2.27 1.18-3.07-.12-.29-.51-1.45.11-3.02 0 0 .96-.31 3.14 1.17a10.9 10.9 0 0 1 5.72 0c2.18-1.48 3.14-1.17 3.14-1.17.62 1.57.23 2.73.11 3.02.73.8 1.18 1.82 1.18 3.07 0 4.38-2.69 5.34-5.25 5.63.41.35.77 1.04.77 2.1 0 1.52-.01 2.75-.01 3.13 0 .3.2.66.79.55A10.51 10.51 0 0 0 23.5 12c0-6.27-5.23-11.5-11.5-11.5z"/>
</svg>